<svg width="17" height="11" viewBox="0 0 17 11" fill="none" xmlns="http://www.w3.org/2000/svg">
<path fill-rule="evenodd" clip-rule="evenodd" d="M9.0001 -0.000100017C5.3623 -0.000100017 2.25801 2.28029 0.998838 5.50022C2.25801 8.71958 5.3623 11 9.0001 11C12.6379 11 15.7422 8.71958 16.9998 5.50022C15.7422 2.28029 12.6379 -0.000100017 9.0001 -0.000100017ZM9.0001 9.16689C6.99303 9.16689 5.3623 7.52426 5.3623 5.50022C5.3623 3.47618 6.99303 1.83354 9.0001 1.83354C11.0072 1.83354 12.6379 3.47618 12.6379 5.50022C12.6379 7.52426 11.0072 9.16689 9.0001 9.16689ZM9.0001 3.30054C7.79331 3.30054 6.81677 4.28272 6.81677 5.50022C6.81677 6.71714 7.79331 7.69989 9.0001 7.69989C10.2069 7.69989 11.1818 6.71714 11.1818 5.50022C11.1818 4.28272 10.2069 3.30054 9.0001 3.30054Z" fill="#A4A4A4"/>
</svg>
